HIERARCHY
ROOT Hips
{
  OFFSET 0.0 0.0 0.0
  CHANNELS 6 XPOSITION YPOSITION ZPOSITION ZROTATION XROTATION YROTATION 
  JOINT LeftUpLeg
  {
    OFFSET 0.089458 -0.0866707 0.00101652
    CHANNELS 3 ZROTATION XROTATION YROTATION 
    JOINT LeftLeg
    {
      OFFSET 0.0 -0.444227 0.013727
      CHANNELS 3 ZROTATION XROTATION YROTATION 
      JOINT LeftFoot
      {
        OFFSET -0.00253549 -0.420924 -0.0146059
        CHANNELS 3 ZROTATION XROTATION YROTATION 
        End Site
        {
          OFFSET -0.0004 -0.0441509 0.084991
        }
      }
    }
  }
  JOINT Spine
  {
    OFFSET 0.0 0.118905 0.0
    CHANNELS 3 ZROTATION XROTATION YROTATION 
    JOINT Spine1
    {
      OFFSET 0.0 0.256574 0.00127663
      CHANNELS 3 ZROTATION XROTATION YROTATION 
      End Site
      {
        OFFSET -0.0029 0.2150836 0.02525291
      }
      JOINT RightArm
      {
        OFFSET -0.162727 -0.05365632 0.00102123
        CHANNELS 3 ZROTATION XROTATION YROTATION 
        JOINT RightForeArm
        {
          OFFSET -0.26364 0.00099144 -0.0142434
          CHANNELS 3 ZROTATION XROTATION YROTATION 
          End Site
          {
            OFFSET -0.220324 0.00085362 0.0102216
          }
        }
      }
      JOINT LeftArm
      {
        OFFSET 0.162727 -0.0536563199 0.00102123
        CHANNELS 3 ZROTATION XROTATION YROTATION 
        JOINT LeftForeArm
        {
          OFFSET 0.262597 0.00099144 -0.0142434
          CHANNELS 3 ZROTATION XROTATION YROTATION 
          End Site
          {
            OFFSET 0.220902 0.00085362 0.0102216
          }
        }
      }
    }
  }
  JOINT RightUpLeg
  {
    OFFSET -0.089458 -0.0866707 0.00101652
    CHANNELS 3 ZROTATION XROTATION YROTATION 
    JOINT RightLeg
    {
      OFFSET 0.0 -0.444227 0.013727
      CHANNELS 3 ZROTATION XROTATION YROTATION 
      JOINT RightFoot
      {
        OFFSET 0.00253549 -0.420924 -0.0146059
        CHANNELS 3 ZROTATION XROTATION YROTATION 
        End Site
        {
          OFFSET 0.0004 -0.0441509 0.084991
        }
      }
    }
  }
}
MOTION
Frames: 19
Frame Time: 0.033333
1.95317 1.04118771798 0.0812448 -2.45474992402 -0.236695990179 -91.2478985564 -0.897707023819 -1.55601997265 1.66997004629 -0.416844977622 8.35305070868 18.4399005419 -2.55366621769 -5.21773518623 0.00375827532209 -0.270467006757 8.11742028137 -0.475252993464 0.647809985521 -3.02963008443 -0.563212009513 78.5044321313 -14.9555307633 4.83781487827 7.68250030201 38.9955990284 8.85869985822 -73.2945619079 -6.11895132646 -2.55716071322 -5.34958985372 37.1309983661 -13.6053995861 -1.38466002461 -1.86122014553 -4.01425969645 0.417906991997 10.0110005825 -11.090699811 3.87876709945 -6.76959898877 -0.0769294077976 
1.95331 1.04118771798 0.0813347 -2.456270068 -0.227004005108 -91.2647008218 -0.896729026107 -1.56671007248 1.67081997795 -0.414684983658 8.36604941244 18.4404981835 -2.55009616318 -5.21667565313 0.00375827031951 -0.17344501003 8.08076948629 -0.463032984626 0.4450790053 -3.06219002309 -0.514269008355 78.5697492304 -14.9980640588 4.81240614767 7.69388025094 38.9734999513 8.85035934347 -73.2273255257 -6.54843917099 -2.65209052429 -5.48468971484 37.5907998708 -13.3392988311 -1.39624007674 -1.87012009546 -4.03558995035 0.444406978718 10.0099000683 -11.0543999169 3.87852676217 -6.75729867185 -0.0769274201059 
1.95354 1.04118771798 0.0815278 -2.44381009541 -0.21963900679 -91.2550019531 -0.901255947423 -1.60209002549 1.66252001745 -0.412991016703 8.37875014921 18.4411009477 -2.53585649943 -5.21226548536 0.00375824155468 -0.0747254978515 8.05718057421 -0.446023999324 0.249481997584 -3.1462299513 -0.461364977726 78.6421560657 -15.1110473405 4.75202172588 7.54542011291 39.336101034 8.96113988917 -73.1601711058 -6.89353362504 -2.74457384697 -5.59938993535 37.9858989935 -13.1144993763 -1.416840034 -1.8892100473 -4.06452988875 0.475531964003 9.99770988817 -11.0363998071 3.88269659266 -6.74689928195 -0.0769257525792 
1.95373 1.04118771798 0.081784 -2.4175399072 -0.223886984247 -91.2012005531 -0.934821951603 -1.65432998031 1.61165004917 -0.388358019502 8.3883107065 18.4429007025 -2.53920628033 -5.20629547314 0.00375820987167 -0.0474483003027 8.08111014197 -0.457470969486 0.223664002583 -3.26919000495 -0.467418019434 78.7020704851 -15.1471431827 4.69913130227 7.32833962562 39.7478999692 9.15033015276 -73.133424085 -6.7267049739 -2.69563169958 -5.54776992692 37.8450024362 -13.2094005859 -1.44164994911 -1.91289009971 -4.08655981014 0.486954014647 9.9753196743 -11.0679996773 3.90606608491 -6.7389993144 -0.0769245319497 
1.95387 1.04118771798 0.0820301 -2.40837998319 -0.227864021974 -91.1450973792 -0.976199024152 -1.68734007112 1.54958006476 -0.347783013934 8.40466047182 18.4468997783 -2.55905630416 -5.20018586893 0.00375816860039 -0.0196175989645 8.18156941806 -0.503386009047 0.240209989105 -3.44579991386 -0.515279983074 78.7824140004 -14.8916087304 4.66964751006 7.32239992236 39.3057988997 9.27226952001 -73.1123666118 -6.37051018179 -2.5284222654 -5.41622987502 37.4795975609 -13.4472994898 -1.45650998614 -1.92099988213 -4.09529007256 0.47869001936 9.96632943781 -11.114700242 3.93774620982 -6.73159923133 -0.076923364681 
1.95403 1.04117771798 0.0821811 -2.43471996739 -0.223837998984 -91.1197983585 -0.986480059678 -1.6920000744 1.53723994064 -0.337980998784 8.44956981939 18.4333982018 -2.55805632177 -5.21221553961 0.00375824155468 0.0805404034138 8.3629894877 -0.554749992101 0.140680005612 -3.67899004265 -0.547623009867 78.873569705 -14.385189477 4.63713324828 7.51232955393 38.0841990761 9.33733987846 -73.0552867209 -6.2177986779 -2.36910255348 -5.34483006564 37.3022995105 -13.5686002344 -1.45904003762 -1.90757002268 -4.10098986542 0.470697043844 9.98899029792 -11.1360001869 3.95973643074 -6.74679896355 -0.0769257592493 
1.95421 1.04110771798 0.0822244 -2.47518008705 -0.219282009344 -91.1043006593 -0.965986930847 -1.70462002284 1.57445006419 -0.368917993784 8.54166040619 18.3785995941 -2.53705647828 -5.25696565839 0.00375850835894 0.216202007575 8.57820960222 -0.588674954739 -0.0476372977735 -3.93745976877 -0.547413995406 78.9277331051 -13.9088426928 4.55799526147 7.59353964939 37.2050990884 9.47501087892 -72.9678944505 -6.18981923485 -2.26197936064 -5.35882000061 37.2262999956 -13.5686992721 -1.4697599128 -1.89782014108 -4.12834007729 0.488971962021 10.049200123 -11.1320002574 3.981747996 -6.79409930421 -0.0769332764595 
1.95436 1.04101771798 0.082238 -2.50036000631 -0.218849999879 -91.0624999016 -0.95121995514 -1.7514699979 1.59730996029 -0.390495014939 8.66846969832 18.3112983252 -2.54208008242 -5.31881558264 0.0033844494055 0.287140992625 8.74167993472 -0.608029042804 -0.150221006151 -4.14129993436 -0.548767013192 78.9292494071 -13.6512275941 4.45863479206 7.469699782 37.2007004466 9.66801921826 -72.9107735785 -6.08858729361 -2.16497445273 -5.40787996876 37.0335998685 -13.5573005402 -1.49635005268 -1.91282009027 -4.17833023183 0.532233953337 10.1336998083 -11.1374003757 4.01802953399 -6.84639934335 -0.0769416874639 
1.95446 1.04093771798 0.0822877 -2.50607986285 -0.215401994988 -90.9961992553 -0.957734995113 -1.81664995954 1.57460000819 -0.370614015132 8.79259045724 18.267100171 -2.58247809004 -5.36854533622 0.00209055773746 0.242629983825 8.75904995955 -0.616169027469 -0.05087480077 -4.15117980299 -0.574093994965 78.9080826509 -13.6260122432 4.45447477997 7.3543805756 37.5501021886 9.744509653 -72.9301713157 -6.01362554059 -2.11473862483 -5.46177997971 36.883199103 -13.5306004769 -1.51328998904 -1.94198990723 -4.21185963046 0.563451012773 10.2119003517 -11.1801001571 4.05704955094 -6.88699884155 -0.0763709264412 
1.95452 1.04088771798 0.0823271 -2.50220992036 -0.209128999844 -90.9368995529 -0.967454994632 -1.8711700236 1.54267004776 -0.341854996704 8.88060000602 18.2396991596 -2.61465660532 -5.39834545156 0.00136156354733 0.148068002458 8.59668014128 -0.609143003969 0.143311002485 -3.89007960027 -0.599986014809 78.9050500469 -13.833299093 4.61255523944 7.37376977511 37.8931006284 9.62023948369 -72.9900584143 -6.08754056712 -2.19501405159 -5.47534003964 36.997799432 -13.4884001531 -1.50289999065 -1.96830000935 -4.19949015788 0.553339984924 10.264399747 -11.2502000961 4.09039069249 -6.93059892723 -0.0744092280765 
1.95448 1.04084771798 0.0823293 -2.4974300686 -0.209289002361 -90.9049001167 -0.969241942874 -1.89356002403 1.53530998532 -0.337198008309 8.91632018783 18.2129009124 -2.61684845572 -5.41986524321 0.000964062191543 0.135286010458 8.35426989745 -0.597958035595 0.187058003933 -3.50891022146 -0.595246023607 78.9431488421 -14.172875608 4.82725327138 7.41949959915 38.3534997747 9.4235103988 -73.00903951 -6.1631486268 -2.3295538372 -5.3753298485 37.1931018611 -13.5558004599 -1.48377994329 -1.98359002814 -4.16393005862 0.518488998045 10.2975005512 -11.309399907 4.1275332612 -6.97169873678 -0.0733091940941 
1.95426 1.04082771798 0.0822858 -2.50064986246 -0.214801992218 -90.8958023047 -0.970612036133 -1.87066010729 1.54280995991 -0.341095004756 8.90377996052 18.1952995149 -2.61154758859 -5.43822521858 0.000810150627911 0.237526978741 8.17526003081 -0.597172030232 0.0270955005097 -3.24100992509 -0.564808032623 78.9983367706 -14.3615570225 4.9462099804 7.45222986565 38.6642016649 9.297850286 -72.9774430549 -6.12473777734 -2.3509549543 -5.19766979799 37.1844002001 -13.7521999881 -1.47475000632 -1.9753400134 -4.14211998394 0.492912020676 10.3172995621 -11.333799904 4.15498464524 -6.98469872121 -0.0726276826212 
1.95391 1.04082771798 0.0822283 -2.51003006007 -0.217863010863 -90.8995998899 -0.97279598912 -1.8218300177 1.54960002172 -0.336864983226 8.87267015639 18.1950997319 -2.61751760081 -5.45000558735 0.000811898560615 0.319611978743 8.07594993405 -0.588702969187 -0.0803145936246 -3.10191995283 -0.535647980705 79.0095382808 -14.2914297627 4.97825765487 7.5717103648 38.3602001902 9.22068963895 -72.9782490173 -6.12192971582 -2.28772447806 -5.1164998299 37.0882004007 -13.8556995522 -1.46980004016 -1.94753004442 -4.13500975702 0.481905971242 10.325899624 -11.3304001773 4.14546549598 -6.99149860141 -0.0722109010096 
1.95361 1.04082771798 0.0821625 -2.5071199726 -0.225643009875 -90.9147014381 -0.977682028975 -1.79402986711 1.55255002311 -0.335983995545 8.85441989093 18.2092996952 -2.63462252893 -5.4565156114 0.000881360894535 0.268821011208 7.98978965899 -0.543796983354 0.0464859006352 -2.97287014521 -0.511720974269 78.9541864278 -14.249817689 5.02220736086 7.73889973531 37.8267009444 9.11972919773 -73.045902041 -6.25241279595 -2.29819985381 -5.20828006998 37.1624991985 -13.7317000291 -1.46955991632 -1.9434500736 -4.13001987694 0.471511010294 10.3496994182 -11.30959969 4.12656422811 -7.03179842506 -0.0719077046435 
1.95339 1.04083771798 0.0820718 -2.48857985098 -0.250207998668 -90.9378011379 -0.995501032025 -1.79449986951 1.54190005065 -0.336514989392 8.84571993748 18.241300839 -2.65568597855 -5.4603353947 0.000930587844633 0.155137995301 7.93874082514 -0.482442994865 0.240032991156 -2.89095995536 -0.48414003007 78.8794095168 -14.46644653 5.05818666297 7.77348952081 37.8743005327 9.03142936591 -73.1078928379 -6.33475926413 -2.35727031796 -5.32531023877 37.2817986977 -13.5782999568 -1.48706003492 -1.9819098016 -4.13107983692 0.457532974797 10.4100996348 -11.2790994802 4.14623986867 -7.0758988221 -0.0715561433343 
1.95312 1.04083771798 0.0819272 -2.47802998348 -0.280351998033 -90.9518030257 -1.02320001043 -1.78051996638 1.51945999774 -0.335443023218 8.82910037968 18.278600502 -2.66141181151 -5.4622952321 0.000871624258519 0.0652286000583 7.95937055775 -0.452691971501 0.341892989631 -2.92087981247 -0.473399984487 78.8178421916 -14.7136259534 5.02686426921 7.67244028713 38.3791027388 9.02229996431 -73.1318326509 -6.27771480484 -2.31684819124 -5.33096990427 37.1957997858 -13.5928994861 -1.50420989287 -2.00423000604 -4.12944016464 0.437717982365 10.4606993837 -11.2689003003 4.16905995758 -7.08099841209 -0.0709923325627 
1.95268 1.04083771798 0.0816991 -2.4815298151 -0.29105100912 -90.9479029877 -1.02542996047 -1.74377995195 1.5202499518 -0.336138021647 8.81729012883 18.2781001907 -2.64757363481 -5.47157532475 0.000616523529878 -0.0483008966751 7.95975048702 -0.455007992599 0.490682017273 -2.92006979472 -0.504324999975 78.7423822616 -14.7176950386 5.01075014541 7.62305972698 38.6155980388 9.03789072487 -73.1989460897 -6.32650156543 -2.22955944086 -5.29812992785 37.1044016094 -13.6390007017 -1.48279991786 -1.96466997725 -4.09874999026 0.408356973475 10.4412990851 -11.3020002508 4.1304036482 -7.08929879948 -0.0700655345892 
1.95223 1.04081771798 0.0814197 -2.47406996786 -0.280643001444 -90.9465027989 -0.987757945383 -1.72898992435 1.55674994912 -0.34858801576 8.83384992247 18.2369004896 -2.65887546345 -5.50065528203 7.73077797567e-05 -0.16330699493 7.91195026189 -0.456790992138 0.69948399513 -2.84395011119 -0.544523011118 78.658883199 -14.6131692387 5.06969937371 7.66760963584 38.631601172 8.99457964157 -73.3202434192 -6.63062641039 -2.22478898061 -5.30808023281 37.3464976646 -13.5567003373 -1.43795001429 -1.91963021576 -4.05866958644 0.391240999662 10.3951005394 -11.3371996306 4.07565242492 -7.13919845401 -0.0686240445092 
1.95188 1.04078771798 0.0811875 -2.45572002433 -0.274972023443 -90.964199819 -0.958121968018 -1.74525996856 1.5799499673 -0.358261991544 8.87686047745 18.2196986582 -2.71617071875 -5.54651573344 -0.000834081355016 -0.0906558935643 8.02439993507 -0.466771019093 0.610454026764 -3.00782000975 -0.537256010007 78.6411520279 -14.6224992771 5.05109479218 7.65591976708 38.9972007077 8.93974005272 -73.347495874 -6.87780924891 -2.17839684167 -5.27753007732 37.6521008186 -13.5129000417 -1.43052997425 -1.931589877 -4.06841028997 0.413568007605 10.4255998953 -11.3204998181 4.09308989787 -7.19039797891 -0.0664782445319 
